                                    <svg width="13" height="11" viewBox="0 0 13 11" fill="none" xmlns="http://www.w3.org/2000/svg">
                                        <path d="M0.370739 5.53977V4.68324C0.862216 4.68324 1.20313 4.58523 1.39347 4.3892C1.58381 4.19318 1.67898 3.87642 1.67898 3.43892V2.49716C1.67898 1.97159 1.75142 1.55114 1.89631 1.2358C2.04403 0.917613 2.24858 0.677557 2.50994 0.515625C2.77415 0.353693 3.08665 0.245738 3.44744 0.191761C3.80824 0.137784 4.20313 0.110795 4.6321 0.110795V1.46591C4.29688 1.46591 4.04119 1.50994 3.86506 1.59801C3.69176 1.68324 3.57386 1.81676 3.51136 1.99858C3.44886 2.17756 3.41761 2.40483 3.41761 2.6804V3.92472C3.41761 4.14062 3.37784 4.34659 3.2983 4.54261C3.21875 4.7358 3.07102 4.90767 2.85511 5.05824C2.6392 5.20597 2.33097 5.32386 1.9304 5.41193C1.52983 5.49716 1.00994 5.53977 0.370739 5.53977ZM4.6321 10.8963C4.20313 10.8963 3.80824 10.8693 3.44744 10.8153C3.08665 10.7614 2.77415 10.6534 2.50994 10.4915C2.24858 10.3295 2.04403 10.0895 1.89631 9.77131C1.75142 9.45597 1.67898 9.03551 1.67898 8.50994V7.56392C1.67898 7.12642 1.58381 6.80966 1.39347 6.61364C1.20313 6.41761 0.862216 6.3196 0.370739 6.3196V5.46307C1.00994 5.46307 1.52983 5.5071 1.9304 5.59517C2.33097 5.6804 2.6392 5.7983 2.85511 5.94886C3.07102 6.09659 3.21875 6.26847 3.2983 6.46449C3.37784 6.65767 3.41761 6.86364 3.41761 7.08239V8.3267C3.41761 8.59943 3.44886 8.82528 3.51136 9.00426C3.57386 9.18608 3.69176 9.3196 3.86506 9.40483C4.04119 9.4929 4.29688 9.53693 4.6321 9.53693V10.8963ZM0.370739 6.3196V4.68324H1.90057V6.3196H0.370739ZM12.2259 5.46307V6.3196C11.7372 6.3196 11.3963 6.41761 11.2031 6.61364C11.0128 6.80966 10.9176 7.12642 10.9176 7.56392V8.50994C10.9176 9.03551 10.8438 9.45597 10.696 9.77131C10.5511 10.0895 10.3466 10.3295 10.0824 10.4915C9.82102 10.6534 9.50994 10.7614 9.14915 10.8153C8.79119 10.8693 8.39631 10.8963 7.96449 10.8963V9.53693C8.29972 9.53693 8.55398 9.4929 8.72727 9.40483C8.90341 9.3196 9.02273 9.18608 9.08523 9.00426C9.14773 8.82528 9.17898 8.59943 9.17898 8.3267V7.08239C9.17898 6.86364 9.21875 6.65767 9.2983 6.46449C9.37784 6.26847 9.52557 6.09659 9.74148 5.94886C9.95739 5.7983 10.2656 5.6804 10.6662 5.59517C11.0668 5.5071 11.5866 5.46307 12.2259 5.46307ZM7.96449 0.110795C8.39631 0.110795 8.79119 0.137784 9.14915 0.191761C9.50994 0.245738 9.82102 0.353693 10.0824 0.515625C10.3466 0.677557 10.5511 0.917613 10.696 1.2358C10.8438 1.55114 10.9176 1.97159 10.9176 2.49716V3.43892C10.9176 3.87642 11.0128 4.19318 11.2031 4.3892C11.3963 4.58523 11.7372 4.68324 12.2259 4.68324V5.53977C11.5866 5.53977 11.0668 5.49716 10.6662 5.41193C10.2656 5.32386 9.95739 5.20597 9.74148 5.05824C9.52557 4.90767 9.37784 4.7358 9.2983 4.54261C9.21875 4.34659 9.17898 4.14062 9.17898 3.92472V2.6804C9.17898 2.40483 9.14773 2.17756 9.08523 1.99858C9.02273 1.81676 8.90341 1.68324 8.72727 1.59801C8.55398 1.50994 8.29972 1.46591 7.96449 1.46591V0.110795ZM12.2259 4.68324V6.3196H10.696V4.68324H12.2259Z" fill="rgba(55, 53, 47, 0.65)"/>
                                </svg>